<svg width="16" height="16" viewBox="0 0 16 16" fill="none" xmlns="http://www.w3.org/2000/svg">
<g clip-path="url(#clip0_22_1081)">
<path d="M7.64081 15.5528C11.8607 15.5528 15.2816 12.1319 15.2816 7.91196C15.2816 3.69206 11.8607 0.271149 7.64081 0.271149C3.42091 0.271149 0 3.69206 0 7.91196C0 12.1319 3.42091 15.5528 7.64081 15.5528Z" fill="black"/>
<path d="M10.1253 2.61655H8.43266C7.4282 2.61655 6.31095 3.03901 6.31095 4.49502C6.31586 5.00235 6.31095 5.48822 6.31095 6.03504H5.14893V7.88417H6.34691V13.2075H8.54827V7.84904H10.0012L10.1327 6.02985H8.51034C8.51034 6.02985 8.51397 5.2206 8.51034 4.98559C8.51034 4.4102 9.10905 4.44315 9.14506 4.44315C9.42996 4.44315 9.98391 4.44398 10.1261 4.44315V2.61655H10.1253Z" fill="white"/>
</g>
<defs>
<clipPath id="clip0_22_1081">
<rect width="15.2816" height="15.2816" fill="white" transform="translate(0 0.271118)"/>
</clipPath>
</defs>
</svg>
