<svg width="16" height="16" viewBox="0 0 16 16" fill="none" xmlns="http://www.w3.org/2000/svg">
<g clip-path="url(#clip0_22_1084)">
<mask id="mask0_22_1084" style="mask-type:luminance" maskUnits="userSpaceOnUse" x="0" y="0" width="16" height="16">
<path d="M8.15094 15.5528C12.3708 15.5528 15.7918 12.1319 15.7918 7.91202C15.7918 3.69212 12.3708 0.27121 8.15094 0.27121C3.93104 0.27121 0.510132 3.69212 0.510132 7.91202C0.510132 12.1319 3.93104 15.5528 8.15094 15.5528Z" fill="white"/>
</mask>
<g mask="url(#mask0_22_1084)">
<path d="M3.79337 31.1926C12.8596 31.1926 20.2092 23.843 20.2092 14.7768C20.2092 5.71063 12.8596 -1.63898 3.79337 -1.63898C-5.27283 -1.63898 -12.6224 5.71063 -12.6224 14.7768C-12.6224 23.843 -5.27283 31.1926 3.79337 31.1926Z" fill="black"/>
</g>
<path d="M10.2999 6.35995C10.6296 6.35995 10.8969 6.0927 10.8969 5.76302C10.8969 5.43334 10.6296 5.16608 10.2999 5.16608C9.97026 5.16608 9.703 5.43334 9.703 5.76302C9.703 6.0927 9.97026 6.35995 10.2999 6.35995Z" fill="white"/>
<path d="M8.15093 6.00183C7.77312 6.00183 7.40381 6.11386 7.08968 6.32376C6.77554 6.53365 6.53071 6.83199 6.38613 7.18103C6.24155 7.53007 6.20372 7.91415 6.27743 8.2847C6.35113 8.65524 6.53306 8.9956 6.80021 9.26275C7.06736 9.5299 7.40772 9.71183 7.77826 9.78553C8.14881 9.85924 8.53289 9.82141 8.88193 9.67683C9.23097 9.53225 9.52931 9.28742 9.7392 8.97329C9.9491 8.65915 10.0611 8.28984 10.0611 7.91203C10.0611 7.40542 9.85988 6.91955 9.50164 6.56132C9.14341 6.20308 8.65754 6.00183 8.15093 6.00183ZM8.15093 8.86714C7.96203 8.86714 7.77737 8.81112 7.6203 8.70617C7.46324 8.60122 7.34082 8.45206 7.26853 8.27754C7.19624 8.10301 7.17732 7.91097 7.21418 7.7257C7.25103 7.54043 7.34199 7.37025 7.47557 7.23668C7.60914 7.1031 7.77932 7.01214 7.9646 6.97528C8.14987 6.93843 8.34191 6.95735 8.51643 7.02964C8.69095 7.10192 8.84012 7.22434 8.94506 7.38141C9.05001 7.53847 9.10603 7.72313 9.10603 7.91203C9.10603 8.16534 9.0054 8.40828 8.82629 8.58739C8.64717 8.76651 8.40424 8.86714 8.15093 8.86714Z" fill="white"/>
<path d="M10.5387 4.09161H5.76322C4.97199 4.09161 4.33057 4.73303 4.33057 5.52427V10.2998C4.33057 11.091 4.97199 11.7324 5.76322 11.7324H10.5387C11.33 11.7324 11.9714 11.091 11.9714 10.2998V5.52427C11.9714 4.73303 11.33 4.09161 10.5387 4.09161Z" stroke="white" stroke-width="0.244898" stroke-miterlimit="10"/>
</g>
<defs>
<clipPath id="clip0_22_1084">
<rect width="15.2816" height="15.2816" fill="white" transform="translate(0.510132 0.27121)"/>
</clipPath>
</defs>
</svg>
