<svg width="33" height="12" viewBox="0 0 33 12" fill="none" xmlns="http://www.w3.org/2000/svg">
<g clip-path="url(#clip0_22_1018)">
<path d="M8.49274 10.0254C8.14718 10.2715 5.92988 8.71125 5.50522 8.70782C5.08055 8.70442 2.8383 10.2288 2.49676 9.97713C2.15523 9.72546 2.95816 7.14053 2.8302 6.73676C2.70224 6.33299 0.55542 4.67757 0.689898 4.2759C0.824407 3.87424 3.53794 3.83693 3.8835 3.59079C4.22907 3.34468 5.14453 0.797202 5.56923 0.800602C5.99386 0.804031 6.86797 3.36591 7.2095 3.61757C7.55103 3.86921 10.2636 3.95021 10.3916 4.35398C10.5196 4.75775 8.34628 6.3784 8.21178 6.78007C8.0773 7.18174 8.83831 9.77924 8.49274 10.0254Z" fill="#F8B84E"/>
</g>
<path d="M20.9516 9.42248C20.5706 9.42248 20.2274 9.3467 19.9221 9.19514C19.6168 9.04358 19.3722 8.83572 19.1881 8.57158C19.0041 8.30743 18.9034 8.00647 18.8861 7.66871H19.6655C19.6958 7.96967 19.8322 8.21866 20.0747 8.41569C20.3194 8.61055 20.6117 8.70798 20.9516 8.70798C21.2244 8.70798 21.4669 8.64411 21.6791 8.51637C21.8935 8.38862 22.0613 8.21325 22.1825 7.99024C22.3059 7.76506 22.3676 7.51066 22.3676 7.22702C22.3676 6.93689 22.3038 6.67816 22.176 6.45082C22.0504 6.22131 21.8772 6.04052 21.6564 5.90845C21.4355 5.77637 21.1833 5.70925 20.8997 5.70709C20.6961 5.70492 20.4872 5.73632 20.2729 5.80127C20.0585 5.86406 19.882 5.94526 19.7435 6.04485L18.99 5.95392L19.3927 2.68022H22.8483V3.39471H20.0682L19.8344 5.35634H19.8734C20.0098 5.24808 20.1808 5.15823 20.3865 5.08678C20.5922 5.01533 20.8066 4.9796 21.0296 4.9796C21.4366 4.9796 21.7993 5.07703 22.1176 5.2719C22.438 5.46459 22.6892 5.72874 22.871 6.06434C23.0551 6.39994 23.1471 6.78317 23.1471 7.21403C23.1471 7.6384 23.0518 8.0173 22.8613 8.35073C22.6729 8.682 22.4131 8.94398 22.0818 9.13668C21.7506 9.32721 21.3738 9.42248 20.9516 9.42248ZM24.7588 9.38351C24.5985 9.38351 24.4611 9.32613 24.3463 9.21138C24.2316 9.09662 24.1742 8.95914 24.1742 8.79892C24.1742 8.6387 24.2316 8.50121 24.3463 8.38646C24.4611 8.2717 24.5985 8.21433 24.7588 8.21433C24.919 8.21433 25.0565 8.2717 25.1712 8.38646C25.286 8.50121 25.3434 8.6387 25.3434 8.79892C25.3434 8.90501 25.3163 9.00244 25.2622 9.09121C25.2102 9.17998 25.1398 9.25143 25.0511 9.30556C24.9645 9.35752 24.867 9.38351 24.7588 9.38351ZM28.643 9.42248C28.1537 9.42248 27.7369 9.28932 27.3927 9.02301C27.0484 8.75453 26.7853 8.36589 26.6035 7.85708C26.4216 7.3461 26.3307 6.72904 26.3307 6.00588C26.3307 5.28705 26.4216 4.67323 26.6035 4.16442C26.7875 3.65345 27.0517 3.26372 27.3959 2.99524C27.7423 2.7246 28.158 2.58928 28.643 2.58928C29.128 2.58928 29.5427 2.7246 29.8869 2.99524C30.2333 3.26372 30.4975 3.65345 30.6794 4.16442C30.8634 4.67323 30.9554 5.28705 30.9554 6.00588C30.9554 6.72904 30.8645 7.3461 30.6826 7.85708C30.5007 8.36589 30.2377 8.75453 29.8934 9.02301C29.5491 9.28932 29.1324 9.42248 28.643 9.42248ZM28.643 8.70798C29.128 8.70798 29.5048 8.47415 29.7732 8.00647C30.0417 7.5388 30.176 6.87194 30.176 6.00588C30.176 5.42995 30.1142 4.93955 29.9908 4.53466C29.8696 4.12978 29.6942 3.82125 29.4647 3.60906C29.2374 3.39688 28.9635 3.29079 28.643 3.29079C28.1624 3.29079 27.7867 3.52787 27.5161 4.00204C27.2454 4.47404 27.1101 5.14199 27.1101 6.00588C27.1101 6.58181 27.1707 7.07113 27.292 7.47385C27.4132 7.87657 27.5875 8.18293 27.8149 8.39295C28.0444 8.60297 28.3204 8.70798 28.643 8.70798Z" fill="black"/>
<defs>
<clipPath id="clip0_22_1018">
<rect width="10.3706" height="10.3706" fill="white" transform="translate(0.0361328 0.331543)"/>
</clipPath>
</defs>
</svg>
