<svg width="16" height="16" viewBox="0 0 16 16" fill="none" xmlns="http://www.w3.org/2000/svg">
<g clip-path="url(#clip0_22_1118)">
<path d="M8.16869 15.5528C12.1084 15.5528 15.3021 12.1319 15.3021 7.91202C15.3021 3.69212 12.1084 0.27121 8.16869 0.27121C4.22902 0.27121 1.03528 3.69212 1.03528 7.91202C1.03528 12.1319 4.22902 15.5528 8.16869 15.5528Z" fill="black"/>
<path d="M13.5751 4.8726C13.2147 5.03253 12.8276 5.14064 12.4206 5.18923C12.836 4.9405 13.1542 4.54634 13.3044 4.07723C12.9098 4.31159 12.478 4.47657 12.0277 4.56502C11.6612 4.17439 11.1386 3.93051 10.5605 3.93051C9.45073 3.93051 8.55072 4.83016 8.55072 5.94055C8.55072 6.09788 8.56844 6.25137 8.60251 6.39874C6.93193 6.31478 5.45086 5.51456 4.4595 4.29862C4.2864 4.59559 4.18731 4.94086 4.18731 5.30926C4.18731 6.00653 4.54222 6.62174 5.08148 6.98211C4.76225 6.97222 4.45001 6.88605 4.17089 6.73081V6.75621C4.17089 7.73019 4.86365 8.54232 5.78324 8.72702C5.61432 8.77331 5.43703 8.79749 5.25363 8.79749C5.12395 8.79749 4.99815 8.78521 4.87525 8.7621C5.13104 9.5604 5.87338 10.1415 6.75271 10.1579C6.06477 10.6972 5.19795 11.0186 4.25648 11.0186C4.09433 11.0186 3.93406 11.009 3.77673 10.99C4.66641 11.5605 5.72277 11.8935 6.85794 11.8935C10.555 11.8935 12.577 8.83065 12.577 6.1745C12.577 6.0873 12.575 6.00074 12.5708 5.9145C12.9648 5.62956 13.3048 5.27676 13.5751 4.8726Z" fill="white"/>
</g>
<defs>
<clipPath id="clip0_22_1118">
<rect width="15.2816" height="15.2816" fill="white" transform="translate(0.0202637 0.27121)"/>
</clipPath>
</defs>
</svg>
