<svg width="40" height="33" viewBox="0 0 40 33" fill="none" xmlns="http://www.w3.org/2000/svg">
<path d="M0.150391 26.1263C0.150391 29.706 3.05231 32.6079 6.63202 32.6079H32.5585C36.1382 32.6079 39.0401 29.706 39.0401 26.1263V6.6814C39.0401 3.1017 36.1382 0.19978 32.5585 0.19978H6.63201C3.05231 0.19978 0.150391 3.1017 0.150391 6.68141V26.1263Z" fill="black"/>
<path d="M19.5953 24.83C24.2489 24.83 28.0214 21.0575 28.0214 16.4039C28.0214 11.7503 24.2489 7.97778 19.5953 7.97778C14.9417 7.97778 11.1692 11.7503 11.1692 16.4039C11.1692 21.0575 14.9417 24.83 19.5953 24.83Z" fill="black"/>
<path d="M19.5953 19.7743L22.9657 16.4039L19.5953 13.0335" fill="black"/>
<path d="M19.5953 19.7743L22.9657 16.4039M22.9657 16.4039L19.5953 13.0335M22.9657 16.4039H16.2249M28.0214 16.4039C28.0214 21.0575 24.2489 24.83 19.5953 24.83C14.9417 24.83 11.1692 21.0575 11.1692 16.4039C11.1692 11.7503 14.9417 7.97778 19.5953 7.97778C24.2489 7.97778 28.0214 11.7503 28.0214 16.4039Z" stroke="#EDEDED" stroke-width="1.62041" stroke-linecap="round" stroke-linejoin="round"/>
</svg>
